PathFileType	4	(X/Y/Z)	D:\TRACE\v60_Jaco2_6-2-23\JustArmDRS_Motion3_5-v60.trc
DataRate	CameraRate	NumFrames	NumMarkers	Units	OrigDataRate	OrigDataStartFrame	OrigNumFrames
100.00	100.00	      42	9	mm	100.00	6126	      7000
Frame#	Time	front left toe			Front right toe			aft left toe			aft right toe			Arm			FL body			FR body			AL Body			AR Body			
		X1	Y1	Z1	X2	Y2	Z2	X3	Y3	Z3	X4	Y4	Z4	X5	Y5	Z5	X6	Y6	Z6	X7	Y7	Z7	X8	Y8	Z8	X9	Y9	Z9	

6126	61.250	-172.73003	22.28923	-233.05215	225.74113	20.89746	-168.17531	-262.03403	13.18838	404.99994	148.22060	10.96580	419.76245	36.29576	1102.71960	-625.87415	-40.74648	591.20630	-340.52893	116.49813	591.35278	-319.78830	-153.82491	571.31323	597.23560	-3.77264	563.17670	616.14471	
6127	61.260	-172.43460	22.05752	-232.81789	225.94342	20.82750	-168.32289	-261.73010	13.28723	404.97452	148.27167	11.26056	419.60794	36.86214	1102.67700	-625.40485	-40.65071	591.11139	-340.71411	117.13399	591.16278	-320.14261	-153.73399	571.47870	597.11859	-3.44516	563.20770	616.07190	
6128	61.270	-172.29286	22.10294	-233.19264	226.42896	20.80538	-168.47009	-261.39340	13.41897	404.93677	148.30237	11.33910	419.46255	37.42173	1102.62720	-624.93799	-40.48596	590.92657	-340.84735	116.88424	591.02588	-320.15146	-153.57996	571.64758	597.00140	-3.17363	563.27185	616.00861	
6129	61.280	-172.13843	22.00696	-233.31372	226.60237	20.75773	-168.63353	-261.23462	13.65266	404.93130	148.38354	11.49440	419.33395	38.14323	1102.60754	-624.24054	-40.29809	590.71002	-340.97388	116.98453	590.90063	-320.43768	-153.51030	571.84137	596.85278	-3.00547	563.48907	615.84351	
6130	61.290	-171.85210	21.77220	-233.39641	226.73373	20.69966	-168.73958	-260.78622	13.95848	404.68210	148.54443	11.62210	419.19348	38.57387	1102.42700	-623.85858	-40.05059	590.53076	-341.10321	117.01772	590.85480	-320.57870	-153.48135	572.00977	596.79181	-2.91530	563.63452	615.65961	
6131	61.300	-171.73178	21.66837	-233.45444	226.75798	20.50891	-168.89806	-260.92343	14.15115	404.73273	148.87740	11.88601	419.25497	39.16194	1102.19543	-623.57318	-39.75385	590.35321	-341.21619	117.12663	590.78412	-320.68170	-153.34138	572.17731	596.66968	-2.68110	563.77362	615.46558	
6132	61.310	-171.61041	21.59902	-233.50885	226.77530	20.37279	-168.98184	-260.83102	14.40122	404.64325	149.37776	12.19945	419.23145	40.18056	1101.83801	-623.14874	-39.59641	590.32825	-341.25034	117.50320	590.68079	-320.75287	-153.06577	572.48529	596.45447	-2.58853	563.97119	615.30035	
6133	61.320	-171.40083	21.48349	-233.56961	226.96912	20.21561	-168.92676	-260.64789	14.64312	404.54611	149.75771	12.38194	419.16946	40.94233	1101.49377	-622.77844	-39.25973	590.12451	-341.38303	118.20612	590.51538	-320.91190	-152.85806	572.64722	596.25366	-2.51511	564.18781	615.13715	
6134	61.330	-171.11748	21.36640	-233.61903	227.24742	20.03510	-168.97095	-260.50677	14.92773	404.51584	150.15854	12.68441	419.16013	41.18651	1101.31812	-622.68213	-38.96204	590.04730	-341.49106	118.54265	590.47168	-321.06857	-152.60139	572.73749	596.06042	-2.36133	564.38062	615.05188	
6135	61.340	-170.83128	21.22333	-233.67285	227.44827	19.95288	-168.91333	-260.28342	15.20070	404.47855	150.32513	12.78371	419.08841	41.81069	1101.18225	-622.36151	-38.67445	589.93097	-341.69809	118.48460	590.47058	-321.00986	-152.33575	572.83875	595.73779	-2.13825	564.57458	614.89209	
6136	61.350	-170.60951	21.09070	-233.74292	227.78694	19.90187	-168.85417	-260.09750	15.41677	404.42810	150.32121	12.83403	419.00626	42.64486	1100.91321	-622.09778	-38.37268	589.87189	-341.84409	118.65936	590.43597	-321.15201	-152.11021	573.02820	595.59650	-1.90884	564.75128	614.76099	
6137	61.360	-170.37462	20.95882	-233.86751	228.33049	19.83054	-168.77242	-259.99796	15.57500	404.31549	150.31741	12.90927	418.89111	43.23911	1100.79724	-622.08002	-38.08562	589.81433	-342.01721	118.95215	590.28979	-321.38950	-151.81120	573.10785	595.55096	-1.54360	564.89899	614.63538	
6138	61.370	-170.24207	20.90235	-233.98108	228.50282	19.58015	-168.87230	-259.78815	15.69337	404.29181	150.57190	13.10417	418.85559	43.73901	1100.62598	-622.10388	-37.78098	589.73352	-342.27011	119.31329	590.08490	-321.57803	-151.62929	573.28088	595.46790	-1.31641	565.05664	614.50903	
6139	61.380	-170.12242	20.86049	-234.05740	228.78009	19.55590	-168.81445	-259.53992	15.86485	404.32407	150.80167	13.27415	418.75299	44.23563	1100.41748	-622.07861	-37.50178	589.66302	-342.51324	119.77056	589.80475	-321.71021	-151.31639	573.55200	595.28064	-1.11857	565.17633	614.29041	
6140	61.390	-169.90132	20.80062	-234.12315	228.93336	19.53533	-168.87370	-259.27469	16.08737	404.13956	150.99648	13.52055	418.70105	44.68644	1100.21143	-622.12170	-37.25858	589.61090	-342.66794	120.05602	589.64331	-321.82230	-151.22308	573.75061	595.12610	-0.95139	565.27380	614.19904	
6141	61.400	-169.22017	19.77177	-233.71390	229.25508	19.51406	-169.05244	-258.85193	15.98277	403.91406	151.03217	13.67965	418.62854	45.08867	1099.96106	-622.23712	-36.96673	589.39789	-342.83368	120.41331	589.61328	-322.06973	-151.10886	573.93665	594.97064	-0.62279	565.52411	614.03876	
6142	61.410	-169.01488	19.68655	-233.78787	229.58435	19.47180	-169.27464	-258.44537	16.14076	403.78912	151.13867	13.85758	418.61942	45.52245	1099.79907	-622.41351	-36.74698	589.27637	-343.03088	120.72213	589.51257	-322.29062	-150.89517	574.11835	594.69238	-0.36433	565.73016	613.78168	
6143	61.420	-168.79892	19.57875	-233.85933	229.69598	19.37402	-169.45271	-258.22424	16.26470	403.82419	151.22823	13.94728	418.62723	46.09983	1099.55212	-622.73804	-36.51720	589.11829	-343.18008	120.62824	589.40131	-322.30167	-150.74178	574.18378	594.46796	-0.34175	565.92560	613.69568	
6144	61.430	-168.72154	19.56570	-233.89983	229.64813	19.22276	-169.64708	-257.02719	16.00719	403.77576	151.39905	14.12044	418.68579	46.52513	1099.32605	-623.13763	-36.15862	588.95392	-343.35999	121.10088	589.25079	-322.37531	-150.56068	574.37445	594.11810	-0.15319	566.17816	613.51581	
6145	61.440	-168.61122	19.53154	-233.99236	229.60970	19.06919	-169.80588	-257.87698	16.56519	403.71976	151.76393	14.27612	418.69751	46.82814	1099.14697	-623.44672	-35.90114	588.81885	-343.43802	121.22645	589.14410	-322.67712	-150.07025	574.56714	594.06519	0.01247	566.38000	613.34894	
6146	61.450	-168.50571	19.46802	-234.07910	229.68465	18.90616	-169.93446	-257.78949	16.71492	403.71252	152.01254	14.46251	418.66711	47.09624	1099.01318	-623.64856	-35.65717	588.73083	-343.57907	121.55454	589.04541	-322.84396	-149.78217	574.97772	593.96448	0.05674	566.56964	613.18286	
6147	61.460	-168.37183	19.40832	-234.13155	229.91885	18.84419	-169.92017	-257.90787	16.96555	403.68826	152.37766	14.74905	418.63019	47.11602	1098.81836	-624.08612	-35.43863	588.60797	-343.75864	121.67776	588.97040	-323.05096	-149.78322	575.04083	593.90051	0.19903	566.73993	613.00171	
6148	61.470	-168.28743	19.33880	-234.16989	230.03882	18.74698	-169.92557	-257.78351	17.10822	403.56281	152.75958	14.98699	418.58487	47.43070	1098.68347	-624.63885	-35.17643	588.49890	-343.93744	121.83926	588.84338	-323.27087	-149.65262	575.21466	593.77704	0.33486	566.87653	612.83173	
6149	61.480	-168.09590	19.23138	-234.27513	230.17464	18.66014	-169.91087	-257.67026	17.20513	403.49033	152.84743	15.07429	418.55231	47.73024	1098.58618	-625.04626	-34.98422	588.38477	-344.12225	121.91428	588.80603	-323.41946	-149.61942	575.33716	593.58875	0.62358	567.03070	612.68207	
6150	61.490	-167.83958	19.04507	-234.29088	230.32347	18.59160	-169.91769	-257.52310	17.34388	403.43207	153.00925	15.20260	418.48633	47.91452	1098.58850	-625.43787	-34.89621	588.34131	-344.31845	122.54320	588.61163	-323.56979	-149.47769	575.43140	593.33569	0.78972	567.12573	612.52747	
6151	61.500	-167.63750	18.94596	-234.37421	230.48538	18.56109	-169.81981	-257.35760	17.42400	403.39026	153.13895	15.26011	418.50101	48.25760	1098.66455	-625.73553	-34.67754	588.17389	-344.50629	122.82397	588.54547	-323.66605	-149.42627	575.57751	593.06873	1.05403	567.18848	612.31744	
6152	61.510	-167.41891	18.81320	-234.46384	230.67570	18.52517	-169.82623	-257.26108	17.60756	403.38770	153.20950	15.31919	418.45294	48.84290	1098.75085	-626.22815	-34.44021	588.10571	-344.72372	123.15704	588.37854	-323.84595	-149.26181	575.68951	592.93079	1.32658	567.20471	612.11694	
6153	61.520	-167.37849	18.82059	-234.48247	230.73935	18.47119	-169.84846	-257.15793	17.68379	403.36121	153.14661	15.30770	418.35904	49.20012	1098.85693	-626.75671	-34.28645	588.03180	-344.93170	122.97980	588.35181	-323.83246	-149.20818	575.71814	592.74799	1.38186	567.26703	612.04437	
6154	61.530	-167.78461	19.59441	-234.93825	230.91946	18.47103	-169.85219	-257.07874	17.76814	403.37146	153.17210	15.32727	418.33105	49.13161	1098.94739	-627.38397	-34.06760	587.95129	-345.04242	123.28029	588.25128	-323.94073	-148.98114	575.85602	592.52783	1.49215	567.35327	611.97552	
6155	61.540	-167.68579	19.55076	-234.99146	230.90355	18.35442	-169.89502	-257.00891	17.82993	403.41925	153.06630	15.30656	418.24100	49.27445	1099.08545	-628.15240	-33.85283	587.87097	-345.12881	123.44224	588.17896	-324.11826	-148.87210	576.00763	592.44800	1.62703	567.41748	611.92328	
6156	61.550	-167.50496	19.46174	-235.06543	231.11852	18.36005	-169.88655	-256.93607	17.89603	403.44360	153.24115	15.34163	418.20917	49.27212	1099.27087	-628.86304	-33.73221	587.84784	-345.18900	123.55688	588.10443	-324.19135	-148.66730	576.11713	592.40936	1.67496	567.50134	611.81079	
6157	61.560	-167.32220	19.43034	-235.11243	231.14984	18.29813	-169.91043	-256.81827	17.93699	403.41830	153.31268	15.43353	418.20880	49.34947	1099.26831	-629.43365	-33.52963	587.86188	-345.23163	123.73266	588.01672	-324.23993	-148.51257	576.26990	592.34790	1.74810	567.58765	611.71741	
6158	61.570	-167.14114	19.40046	-235.18829	231.27690	18.24984	-169.84212	-256.76520	17.95155	403.39963	153.44847	15.46415	418.18030	49.41400	1099.40588	-630.40417	-33.28705	587.84454	-345.30573	123.93284	587.97119	-324.23700	-148.34341	576.30682	592.30505	1.85992	567.62421	611.67578	
6159	61.580	-167.01718	19.33326	-235.17686	231.51656	18.28124	-169.75668	-256.66333	17.99301	403.35834	153.63826	15.52916	418.17761	49.23965	1099.48694	-631.24408	-33.11973	587.84180	-345.33075	124.18397	587.90985	-324.25385	-148.19675	576.32581	592.22986	1.94782	567.63562	611.59796	
6160	61.590	-166.89825	19.27550	-235.24872	231.76860	18.35836	-169.63310	-256.58716	18.03299	403.34274	153.64264	15.53441	418.12686	49.31673	1099.45032	-631.86469	-32.89021	587.82281	-345.38129	124.36427	587.92358	-324.27792	-147.97969	576.33240	592.23718	2.01283	567.67035	611.56042	
6161	61.600	-166.87817	19.29113	-235.27226	231.79161	18.35334	-169.64117	-256.57825	18.05379	403.30923	153.79428	15.56022	418.10370	49.21677	1099.57349	-633.12891	-32.67142	587.80328	-345.38345	124.62333	587.86713	-324.29752	-147.82127	576.42035	592.14453	2.10746	567.75128	611.54584	
6162	61.610	-166.55820	18.65019	-234.87744	231.90927	18.37737	-169.57179	-256.45355	18.11913	403.34164	153.85326	15.60480	418.08224	49.19144	1099.55603	-633.83392	-32.47862	587.82312	-345.40308	124.81331	587.82379	-324.33865	-147.76659	576.37231	592.17999	2.15093	567.74689	611.52936	
6163	61.620	-166.54988	18.64357	-234.91348	231.89951	18.33908	-169.58087	-256.51874	18.18415	403.28601	153.83556	15.60618	418.12457	49.07338	1099.59924	-635.09656	-32.26920	587.85052	-345.39020	125.26103	587.73651	-324.44971	-147.70566	576.43439	592.14838	2.34490	567.77020	611.56293	
6164	61.630	-166.51955	18.59904	-234.88579	231.83061	18.28975	-169.56339	-256.47864	18.17342	403.30209	153.72789	15.54407	418.09445	48.83152	1099.57019	-635.95282	-32.12721	587.85425	-345.41058	125.33772	587.75641	-324.44788	-147.63945	576.46136	592.13635	2.52280	567.79114	611.56372	
6165	61.640	-166.43851	18.58534	-234.89598	231.82744	18.26033	-169.59871	-256.45844	18.13910	403.30994	153.89226	15.56373	418.10989	48.78790	1099.65125	-637.09912	-32.01176	587.83789	-345.43411	125.47445	587.72424	-324.52759	-147.54646	576.45789	592.14520	2.73423	567.75995	611.58783	
6166	61.650	-166.40955	18.60364	-234.89139	231.76445	18.27885	-169.59520	-256.45740	18.18030	403.27426	153.83179	15.53385	418.12881	48.52858	1099.60559	-638.13074	-31.87860	587.83618	-345.42422	125.64098	587.70447	-324.44678	-147.47728	576.45874	592.17291	2.93714	567.67224	611.60175	
6167	61.660	-166.29398	18.57631	-234.88844	231.86203	18.32914	-169.54601	-256.48468	18.18376	403.31882	153.91336	15.47087	418.08182	48.24072	1099.52991	-639.32294	-31.63114	587.84064	-345.42685	125.85735	587.65875	-324.43472	-147.41267	576.44250	592.15332	3.07207	567.59802	611.67743	
